<svg width="48" height="48" viewBox="0 0 48 48" fill="none" xmlns="http://www.w3.org/2000/svg">
  <g filter="url(#filter0_ii_207_447)">
    <rect width="48" height="48" rx="12" fill="black"/>
  </g>
  <rect x="0.5" y="0.5" width="47" height="47" rx="11.5" stroke="black"/>
  <g transform="translate(5,5) scale(0.075)">
    <g fill="none" fill-rule="evenodd">
      <g fill-rule="nonzero">
        <path fill="#ffffff" d="M34.91 448.818h81.454V251L0 163.727V413.91c0 19.287 15.622 34.91 34.91 34.91z"/>
        <path fill="#ffffff" d="M395.636 448.818h81.455c19.287 0 34.909-15.622 34.909-34.909V163.727L395.636 251z"/>
        <path fill="#ffffff" d="M395.636 99.727V251L512 163.727v-46.545c0-43.142-49.25-67.782-83.782-41.891z"/>
      </g>
      <path fill="#ffffff" d="M116.364 251V99.727L256 204.455 395.636 99.727V251L256 355.727z"/>
      <path fill="#ffffff" fill-rule="nonzero" d="M0 117.182v46.545L116.364 251V99.727L83.782 75.291C49.25 49.4 0 74.04 0 117.18z"/>
    </g>
  </g>
  <defs>
    <filter id="filter0_ii_207_447" x="-2" y="-4" width="50" height="62" filterUnits="userSpaceOnUse" color-interpolation-filters="sRGB">
      <feFlood flood-opacity="0" result="BackgroundImageFix"/>
      <feBlend mode="normal" in="SourceGraphic" in2="BackgroundImageFix" result="shape"/>
      <feColorMatrix in="SourceAlpha" type="matrix" values="0 0 0 0 0 0 0 0 0 0 0 0 0 0 0 0 0 0 127 0" result="hardAlpha"/>
      <feMorphology radius="2" operator="erode" in="SourceAlpha" result="effect1_innerShadow_207_447"/>
      <feOffset dx="-2" dy="-4"/>
      <feGaussianBlur stdDeviation="4"/>
      <feComposite in2="hardAlpha" operator="arithmetic" k2="-1" k3="1"/>
      <feColorMatrix type="matrix" values="0 0 0 0 1 0 0 0 0 1 0 0 0 0 1 0 0 0 0.08 0"/>
      <feBlend mode="normal" in2="shape" result="effect1_innerShadow_207_447"/>
      <feColorMatrix in="SourceAlpha" type="matrix" values="0 0 0 0 0 0 0 0 0 0 0 0 0 0 0 0 0 0 127 0" result="hardAlpha"/>
      <feMorphology radius="6" operator="erode" in="SourceAlpha" result="effect2_innerShadow_207_447"/>
      <feOffset dy="10"/>
      <feGaussianBlur stdDeviation="6"/>
      <feComposite in2="hardAlpha" operator="arithmetic" k2="-1" k3="1"/>
      <feColorMatrix type="matrix" values="0 0 0 0 1 0 0 0 0 1 0 0 0 0 1 0 0 0 0.03 0"/>
      <feBlend mode="normal" in2="effect1_innerShadow_207_447" result="effect2_innerShadow_207_447"/>
    </filter>
  </defs>
</svg>
