<svg width="48" height="48" viewBox="0 0 48 48" fill="none" xmlns="http://www.w3.org/2000/svg">
  <g filter="url(#filter0_ii_87_33057)">
    <rect width="48" height="48" rx="8" fill="white"/>
  </g>
  <g transform="translate(10,10) scale(0.65)">
    <g>
      <path d="M31,26c-0.6,0-1-0.4-1-1V12c0-0.6,0.4-1,1-1s1,0.4,1,1v13C32,25.6,31.6,26,31,26z" fill="#FF6737"/>
    </g>
    <g>
      <path d="M16,21c-0.2,0-0.3,0-0.5-0.1l-15-8C0.2,12.7,0,12.4,0,12s0.2-0.7,0.5-0.9l15-8c0.3-0.2,0.6-0.2,0.9,0l15,8
      c0.3,0.2,0.5,0.5,0.5,0.9s-0.2,0.7-0.5,0.9l-15,8C16.3,21,16.2,21,16,21z" fill="#FF6737"/>
    </g>
    <path d="M17.4,22.6C17,22.9,16.5,23,16,23s-1-0.1-1.4-0.4L6,18.1V22c0,3.1,4.9,6,10,6s10-2.9,10-6v-3.9L17.4,22.6z" fill="#FF6737"/>
  </g>
  <defs>
    <filter id="filter0_ii_87_33057" x="-2" y="-4" width="50" height="62" filterUnits="userSpaceOnUse" color-interpolation-filters="sRGB">
      <feFlood flood-opacity="0" result="BackgroundImageFix"/>
      <feBlend mode="normal" in="SourceGraphic" in2="BackgroundImageFix" result="shape"/>
      <feColorMatrix in="SourceAlpha" type="matrix" values="0 0 0 0 0 0 0 0 0 0 0 0 0 0 0 0 0 0 127 0" result="hardAlpha"/>
      <feMorphology radius="2" operator="erode" in="SourceAlpha" result="effect1_innerShadow_87_33057"/>
      <feOffset dx="-2" dy="-4"/>
      <feGaussianBlur stdDeviation="4"/>
      <feComposite in2="hardAlpha" operator="arithmetic" k2="-1" k3="1"/>
      <feColorMatrix type="matrix" values="0 0 0 0 0 0 0 0 0 0 0 0 0 0 0 0 0 0 0.08 0"/>
      <feBlend mode="normal" in2="shape" result="effect1_innerShadow_87_33057"/>
      <feColorMatrix in="SourceAlpha" type="matrix" values="0 0 0 0 0 0 0 0 0 0 0 0 0 0 0 0 0 0 127 0" result="hardAlpha"/>
      <feMorphology radius="6" operator="erode" in="SourceAlpha" result="effect2_innerShadow_87_33057"/>
      <feOffset dy="10"/>
      <feGaussianBlur stdDeviation="6"/>
      <feComposite in2="hardAlpha" operator="arithmetic" k2="-1" k3="1"/>
      <feColorMatrix type="matrix" values="0 0 0 0 0 0 0 0 0 0 0 0 0 0 0 0 0 0 0.03 0"/>
      <feBlend mode="normal" in2="effect1_innerShadow_87_33057" result="effect2_innerShadow_87_33057"/>
    </filter>
  </defs>
</svg>
