<svg width="388" height="383" viewBox="0 0 388 383" fill="none" xmlns="http://www.w3.org/2000/svg" xmlns:xlink="http://www.w3.org/1999/xlink">
<rect x="159.806" y="63" width="226" height="226" rx="16" transform="rotate(45 159.806 63)" fill="#EBF3FF"/>
<g filter="url(#filter0_d)">
<rect x="127" y="41" width="218" height="264" rx="8" fill="white"/>
<rect x="159" y="73" width="154" height="126" rx="8" fill="#F4F5F7"/>
<rect x="159" y="73" width="154" height="126" rx="8" fill="url(#pattern0)"/>
<rect x="159" y="223" width="154" height="50" rx="8" fill="#006CD0"/>
<path d="M205.643 255.18C204.737 255.18 203.923 255.02 203.203 254.7C202.483 254.367 201.91 253.92 201.483 253.36C201.07 252.8 200.843 252.18 200.803 251.5H203.623C203.677 251.927 203.883 252.28 204.243 252.56C204.617 252.84 205.077 252.98 205.623 252.98C206.157 252.98 206.57 252.873 206.863 252.66C207.17 252.447 207.323 252.173 207.323 251.84C207.323 251.48 207.137 251.213 206.763 251.04C206.403 250.853 205.823 250.653 205.023 250.44C204.197 250.24 203.517 250.033 202.983 249.82C202.463 249.607 202.01 249.28 201.623 248.84C201.25 248.4 201.063 247.807 201.063 247.06C201.063 246.447 201.237 245.887 201.583 245.38C201.943 244.873 202.45 244.473 203.103 244.18C203.77 243.887 204.55 243.74 205.443 243.74C206.763 243.74 207.817 244.073 208.603 244.74C209.39 245.393 209.823 246.28 209.903 247.4H207.223C207.183 246.96 206.997 246.613 206.663 246.36C206.343 246.093 205.91 245.96 205.363 245.96C204.857 245.96 204.463 246.053 204.183 246.24C203.917 246.427 203.783 246.687 203.783 247.02C203.783 247.393 203.97 247.68 204.343 247.88C204.717 248.067 205.297 248.26 206.083 248.46C206.883 248.66 207.543 248.867 208.063 249.08C208.583 249.293 209.03 249.627 209.403 250.08C209.79 250.52 209.99 251.107 210.003 251.84C210.003 252.48 209.823 253.053 209.463 253.56C209.117 254.067 208.61 254.467 207.943 254.76C207.29 255.04 206.523 255.18 205.643 255.18ZM222.762 243.92V255H219.942V253.6C219.582 254.08 219.109 254.46 218.522 254.74C217.949 255.007 217.322 255.14 216.642 255.14C215.775 255.14 215.009 254.96 214.342 254.6C213.675 254.227 213.149 253.687 212.762 252.98C212.389 252.26 212.202 251.407 212.202 250.42V243.92H215.002V250.02C215.002 250.9 215.222 251.58 215.662 252.06C216.102 252.527 216.702 252.76 217.462 252.76C218.235 252.76 218.842 252.527 219.282 252.06C219.722 251.58 219.942 250.9 219.942 250.02V243.92H222.762ZM228.325 245.54C228.685 245.007 229.178 244.573 229.805 244.24C230.445 243.907 231.171 243.74 231.985 243.74C232.931 243.74 233.785 243.973 234.545 244.44C235.318 244.907 235.925 245.573 236.365 246.44C236.818 247.293 237.045 248.287 237.045 249.42C237.045 250.553 236.818 251.56 236.365 252.44C235.925 253.307 235.318 253.98 234.545 254.46C233.785 254.94 232.931 255.18 231.985 255.18C231.158 255.18 230.431 255.02 229.805 254.7C229.191 254.367 228.698 253.94 228.325 253.42V255H225.525V240.2H228.325V245.54ZM234.185 249.42C234.185 248.753 234.045 248.18 233.765 247.7C233.498 247.207 233.138 246.833 232.685 246.58C232.245 246.327 231.765 246.2 231.245 246.2C230.738 246.2 230.258 246.333 229.805 246.6C229.365 246.853 229.005 247.227 228.725 247.72C228.458 248.213 228.325 248.793 228.325 249.46C228.325 250.127 228.458 250.707 228.725 251.2C229.005 251.693 229.365 252.073 229.805 252.34C230.258 252.593 230.738 252.72 231.245 252.72C231.765 252.72 232.245 252.587 232.685 252.32C233.138 252.053 233.498 251.673 233.765 251.18C234.045 250.687 234.185 250.1 234.185 249.42ZM252.839 243.76C254.199 243.76 255.293 244.18 256.119 245.02C256.959 245.847 257.379 247.007 257.379 248.5V255H254.579V248.88C254.579 248.013 254.359 247.353 253.919 246.9C253.479 246.433 252.879 246.2 252.119 246.2C251.359 246.2 250.753 246.433 250.299 246.9C249.859 247.353 249.639 248.013 249.639 248.88V255H246.839V248.88C246.839 248.013 246.619 247.353 246.179 246.9C245.739 246.433 245.139 246.2 244.379 246.2C243.606 246.2 242.993 246.433 242.539 246.9C242.099 247.353 241.879 248.013 241.879 248.88V255H239.079V243.92H241.879V245.26C242.239 244.793 242.699 244.427 243.259 244.16C243.833 243.893 244.459 243.76 245.139 243.76C246.006 243.76 246.779 243.947 247.459 244.32C248.139 244.68 248.666 245.2 249.039 245.88C249.399 245.24 249.919 244.727 250.599 244.34C251.293 243.953 252.039 243.76 252.839 243.76ZM261.456 242.6C260.963 242.6 260.55 242.447 260.216 242.14C259.896 241.82 259.736 241.427 259.736 240.96C259.736 240.493 259.896 240.107 260.216 239.8C260.55 239.48 260.963 239.32 261.456 239.32C261.95 239.32 262.356 239.48 262.676 239.8C263.01 240.107 263.176 240.493 263.176 240.96C263.176 241.427 263.01 241.82 262.676 242.14C262.356 242.447 261.95 242.6 261.456 242.6ZM262.836 243.92V255H260.036V243.92H262.836ZM268.863 246.22V251.58C268.863 251.953 268.949 252.227 269.123 252.4C269.309 252.56 269.616 252.64 270.043 252.64H271.343V255H269.583C267.223 255 266.043 253.853 266.043 251.56V246.22H264.723V243.92H266.043V241.18H268.863V243.92H271.343V246.22H268.863Z" fill="white"/>
</g>
<defs>
<filter id="filter0_d" x="80" y="0" width="308" height="354" filterUnits="userSpaceOnUse" color-interpolation-filters="sRGB">
<feFlood flood-opacity="0" result="BackgroundImageFix"/>
<feColorMatrix in="SourceAlpha" type="matrix" values="0 0 0 0 0 0 0 0 0 0 0 0 0 0 0 0 0 0 127 0"/>
<feOffset dx="-2" dy="4"/>
<feGaussianBlur stdDeviation="22.5"/>
<feColorMatrix type="matrix" values="0 0 0 0 0 0 0 0 0 0 0 0 0 0 0 0 0 0 0.13 0"/>
<feBlend mode="normal" in2="BackgroundImageFix" result="effect1_dropShadow"/>
<feBlend mode="normal" in="SourceGraphic" in2="effect1_dropShadow" result="shape"/>
</filter>
<pattern id="pattern0" patternContentUnits="objectBoundingBox" width="1" height="1">
<use xlink:href="#image0" transform="translate(0 -0.173923) scale(0.00107066 0.00130859)"/>
</pattern>
<image id="image0" width="934" height="1030" href="images/usc.png"/>
</defs>
</svg>
