<?xml version="1.0" standalone="no"?>
<!DOCTYPE svg PUBLIC "-//W3C//DTD SVG 20010904//EN"
 "http://www.w3.org/TR/2001/REC-SVG-20010904/DTD/svg10.dtd">

<svg version="1.0" xmlns="http://www.w3.org/2000/svg"
 width="1016.000000pt" height="446.000000pt" viewBox="0 0 1016 446"
 preserveAspectRatio="xMidYMid meet">

<g transform="translate(-110.000000,535.000000) scale(0.260000,-0.30000)"
fill="#000000" stroke="none">
<path d="M1090 1620 c0 -27 3 -30 30 -30 27 0 30 3 30 30 0 27 -3 30 -30 30
-27 0 -30 -3 -30 -30z"/>
<path d="M1927 1643 c-4 -3 -7 -134 -7 -290 l0 -283 218 0 218 0 37 38 37 38
0 209 0 209 -42 43 -42 43 -206 0 c-114 0 -210 -3 -213 -7z m363 -288 l0 -166
-107 3 -108 3 -3 163 -2 162 110 0 110 0 0 -165z"/>
<path d="M2557 1644 c-4 -4 -7 -116 -7 -249 l0 -241 43 -42 43 -42 207 0 207
0 0 60 0 60 -172 2 -173 3 -3 48 -3 47 150 0 151 0 0 65 0 65 -150 0 -150 0 0
50 0 50 175 0 176 0 -3 63 -3 62 -241 3 c-132 1 -243 -1 -247 -4z"/>
<path d="M3170 1397 l0 -253 38 -37 38 -37 207 0 207 0 0 60 0 60 -172 2 -173
3 -3 48 -3 47 150 0 151 0 0 65 0 65 -150 0 -150 0 0 50 0 50 175 0 175 0 0
65 0 65 -245 0 -245 0 0 -253z"/>
<path d="M3780 1360 l0 -290 75 0 75 0 0 80 0 80 138 0 138 0 42 43 42 43 0
120 0 120 -48 47 -48 47 -207 0 -207 0 0 -290z m358 78 l-3 -83 -102 -3 -103
-3 0 86 0 85 105 0 106 0 -3 -82z"/>
<path d="M983 1615 c-54 -15 -152 -61 -188 -89 -20 -15 -19 -15 7 -16 15 0 44
10 64 22 21 12 72 32 113 44 50 14 77 27 79 38 4 19 -6 19 -75 1z"/>
<path d="M1192 1614 c2 -11 25 -22 69 -34 37 -9 88 -29 114 -44 26 -14 59 -26
74 -26 23 0 19 5 -28 35 -49 31 -132 63 -204 80 -23 5 -28 3 -25 -11z"/>
<path d="M690 1450 c0 -27 3 -30 30 -30 27 0 30 3 30 30 0 27 -3 30 -30 30
-27 0 -30 -3 -30 -30z"/>
<path d="M1480 1450 c0 -27 3 -30 30 -30 27 0 30 3 30 30 0 27 -3 30 -30 30
-27 0 -30 -3 -30 -30z"/>
<path d="M632 1348 c-26 -43 -57 -123 -66 -170 -6 -33 -4 -38 11 -38 14 0 21
13 30 53 7 28 28 82 47 120 30 59 32 67 16 67 -10 0 -27 -15 -38 -32z"/>
<path d="M1605 1299 c19 -40 37 -91 41 -115 5 -35 10 -44 26 -44 14 0 18 5 14
18 -3 9 -8 31 -12 47 -13 62 -66 165 -85 165 -16 0 -14 -8 16 -71z"/>
<path d="M1101 1081 c-34 -98 -61 -183 -61 -188 0 -13 42 -25 51 -15 4 4 34
87 68 184 l60 176 -29 10 -28 10 -61 -177z"/>
<path d="M888 1123 c-37 -27 -67 -50 -67 -53 0 -3 32 -30 71 -62 l71 -56 18
21 c17 22 17 23 -24 59 -41 36 -41 37 -22 52 60 44 60 44 49 62 -17 29 -26 26
-96 -23z"/>
<path d="M1272 1158 c-17 -17 -15 -36 6 -47 9 -6 26 -18 37 -26 20 -16 19 -17
-22 -53 -42 -36 -42 -38 -25 -59 l17 -22 73 59 73 59 -68 50 c-76 56 -74 56
-91 39z"/>
<path d="M530 1070 c0 -27 3 -30 30 -30 27 0 30 3 30 30 0 27 -3 30 -30 30
-27 0 -30 -3 -30 -30z"/>
<path d="M1650 1070 c0 -28 3 -30 35 -30 32 0 35 2 35 30 0 28 -3 30 -35 30
-32 0 -35 -2 -35 -30z"/>
<path d="M560 992 c0 -24 34 -131 56 -178 18 -38 31 -54 45 -54 19 0 19 2 -4
43 -23 39 -48 107 -61 170 -6 24 -36 40 -36 19z"/>
<path d="M1656 988 c-23 -85 -43 -141 -62 -180 -23 -46 -24 -48 -5 -48 15 0
28 17 49 63 24 49 52 144 52 172 0 11 -31 4 -34 -7z"/>
<path d="M1927 963 c-4 -3 -7 -111 -7 -240 l0 -233 65 0 65 0 0 65 0 65 113 0
113 0 32 33 c32 33 32 33 32 138 l0 105 -38 37 -38 37 -165 0 c-91 0 -169 -3
-172 -7z m293 -168 l0 -65 -85 0 -85 0 0 65 0 65 85 0 85 0 0 -65z"/>
<path d="M2476 930 l-36 -40 0 -200 0 -200 65 0 65 0 0 65 0 65 85 0 85 0 0
-65 0 -65 60 0 60 0 0 203 0 203 -38 37 -38 37 -136 0 -136 0 -36 -40z m264
-135 l0 -65 -85 0 -85 0 0 65 0 65 85 0 85 0 0 -65z"/>
<path d="M2930 915 l0 -55 70 0 70 0 0 -185 0 -185 60 0 60 0 0 185 0 184 73
3 72 3 0 50 0 50 -202 3 -203 2 0 -55z"/>
<path d="M3400 767 l0 -203 38 -37 38 -37 167 0 167 0 0 50 0 49 -142 3 -143
3 0 40 0 40 123 3 122 3 0 49 0 50 -125 0 -125 0 0 40 0 39 143 3 142 3 0 50
0 50 -202 3 -203 2 0 -203z"/>
<path d="M3910 762 l0 -208 33 -32 33 -32 157 0 157 0 0 50 0 50 -130 0 -130
0 0 190 0 190 -60 0 -60 0 0 -208z"/>
<path d="M690 690 c0 -27 3 -30 30 -30 27 0 30 3 30 30 0 27 -3 30 -30 30 -27
0 -30 -3 -30 -30z"/>
<path d="M1480 690 c0 -27 3 -30 30 -30 27 0 30 3 30 30 0 27 -3 30 -30 30
-27 0 -30 -3 -30 -30z"/>
<path d="M820 585 c95 -61 240 -104 240 -72 0 11 -18 19 -55 27 -31 6 -86 27
-123 46 -37 18 -78 34 -92 34 -21 -1 -16 -6 30 -35z"/>
<path d="M1380 595 c-45 -24 -110 -48 -162 -59 -31 -7 -39 -36 -10 -36 52 0
192 57 242 99 l25 20 -25 0 c-14 0 -45 -11 -70 -24z"/>
<path d="M1090 510 c0 -26 3 -30 29 -30 19 0 30 6 33 18 8 29 -2 42 -33 42
-26 0 -29 -4 -29 -30z"/>
</g>
</svg>
